# Blender v2.82 (sub 7) OBJ File: 'sample.blend'
# www.blender.org
mtllib sample.mtl
o Cube
v 1.000000 1.000000 -1.000000
v 1.000000 -1.000000 -1.000000
v 1.000000 1.000000 1.000000
v 1.000000 -1.000000 1.000000
v -1.000000 1.000000 -1.000000
v -1.000000 -1.000000 -1.000000
v -1.000000 1.000000 1.000000
v -1.000000 -1.000000 1.000000
v 0.191404 0.000000 -0.191404
v -0.191404 0.000000 0.191404
v 0.191404 0.000000 0.191404
v -0.191404 0.000000 -0.191404
vt 0.875000 0.500000
vt 0.625000 0.750000
vt 0.625000 0.500000
vt 0.500000 1.000000
vt 0.500000 0.750000
vt 0.625000 0.000000
vt 0.500000 0.250000
vt 0.500000 0.000000
vt 0.375000 0.500000
vt 0.125000 0.750000
vt 0.125000 0.500000
vt 0.500000 0.500000
vt 0.625000 0.250000
vt 0.375000 0.250000
vt 0.375000 0.750000
vt 0.375000 0.000000
vt 0.375000 1.000000
vt 0.875000 0.750000
vt 0.625000 1.000000
vn 0.0000 1.0000 0.0000
vn 0.0000 -0.6288 0.7776
vn -0.7776 -0.6288 0.0000
vn 0.0000 -1.0000 0.0000
vn 0.7776 -0.6288 0.0000
vn 0.0000 -0.6288 -0.7776
vn 0.0000 0.6288 -0.7776
vn 0.7776 0.6288 0.0000
vn -0.7776 0.6288 0.0000
vn 0.0000 0.6288 0.7776
usemtl Material
s off
f 5/1/1 3/2/1 1/3/1
f 3/2/2 10/4/2 11/5/2
f 7/6/3 12/7/3 10/8/3
f 2/9/4 8/10/4 6/11/4
f 1/3/5 11/5/5 9/12/5
f 5/13/6 9/12/6 12/7/6
f 6/14/7 9/12/7 2/9/7
f 2/9/8 11/5/8 4/15/8
f 8/16/9 12/7/9 6/14/9
f 4/15/10 10/4/10 8/17/10
f 5/1/1 7/18/1 3/2/1
f 3/2/2 7/19/2 10/4/2
f 7/6/3 5/13/3 12/7/3
f 2/9/4 4/15/4 8/10/4
f 1/3/5 3/2/5 11/5/5
f 5/13/6 1/3/6 9/12/6
f 6/14/7 12/7/7 9/12/7
f 2/9/8 9/12/8 11/5/8
f 8/16/9 10/8/9 12/7/9
f 4/15/10 11/5/10 10/4/10
